<?xml version="1.0" encoding="UTF-8"?>
<!-- by Imilion https://github.com/Imiloin/Riscpu -->
<!-- BSD-3-Clause license -->
<svg id="_层_1" data-name="图层 1" xmlns="http://www.w3.org/2000/svg" viewBox="0 0 490.63 340.45">
  <defs>
    <style>
      .cls-1, .cls-2, .cls-3, .cls-4, .cls-5 {
        font-size: 4.79px;
      }

      .cls-1, .cls-3, .cls-6 {
        fill: #00a0e9;
      }

      .cls-1, .cls-4, .cls-7, .cls-5 {
        font-family: ArialMT, Arial;
      }

      .cls-8, .cls-9, .cls-10, .cls-11, .cls-12, .cls-13, .cls-14, .cls-15, .cls-16, .cls-17, .cls-18 {
        fill: none;
      }

      .cls-8, .cls-11, .cls-12, .cls-13, .cls-15, .cls-16 {
        stroke-miterlimit: 10;
      }

      .cls-8, .cls-12, .cls-14, .cls-15 {
        stroke-width: .5px;
      }

      .cls-8, .cls-16 {
        stroke: #df3e00;
      }

      .cls-9, .cls-12, .cls-14 {
        stroke: #00a0e9;
      }

      .cls-9, .cls-17 {
        stroke-width: .44px;
      }

      .cls-2, .cls-3, .cls-19 {
        font-family: Arial-BoldMT, Arial;
      }

      .cls-2, .cls-7, .cls-5, .cls-20 {
        fill: #231815;
      }

      .cls-10 {
        stroke-width: .67px;
      }

      .cls-10, .cls-11, .cls-13, .cls-15, .cls-17, .cls-18 {
        stroke: #231815;
      }

      .cls-11 {
        stroke-width: .6px;
      }

      .cls-19 {
        font-size: 5px;
      }

      .cls-19, .cls-4, .cls-21 {
        fill: #df3e00;
      }

      .cls-13, .cls-18 {
        stroke-width: .66px;
      }

      .cls-7 {
        font-size: 4px;
      }

      .cls-16 {
        stroke-width: .44px;
      }
    </style>
  </defs>
  <polyline class="cls-13" points="427.32 263.27 427.32 327.35 258.13 327.35 258.13 188.81 266.31 188.81"/>
  <polyline class="cls-14" points="194.44 176.2 194.44 39.37 199.7 39.37 465.63 39.37 465.63 97.83 459.96 97.83"/>
  <rect class="cls-9" x="237.44" y="49.25" width="12.44" height="59.89"/>
  <text class="cls-1" transform="translate(239.81 61.88)"><tspan x="0" y="0">WB</tspan></text>
  <text class="cls-1" transform="translate(241.67 82.77)"><tspan x="0" y="0">M</tspan></text>
  <text class="cls-1" transform="translate(240.47 102)"><tspan x="0" y="0">EX</tspan></text>
  <path class="cls-9" d="M374.68,109.05h-12.44v-40.9h12.44v40.9Zm-137.32-18.86h12.6m-12.6-20.06h12.6"/>
  <text class="cls-1" transform="translate(364.61 80.78)"><tspan x="0" y="0">WB</tspan></text>
  <text class="cls-1" transform="translate(366.47 101.67)"><tspan x="0" y="0">M</tspan></text>
  <path class="cls-9" d="M460.11,109.05h-12.44v-20.88h12.44v20.88Zm-97.95-19.89h12.6"/>
  <text class="cls-1" transform="translate(450.04 100.71)"><tspan x="0" y="0">WB</tspan></text>
  <path class="cls-9" d="M414.33,190.33V102.94h-39.56m33.62,55.21h2.7V16.52H18.84V164.18m343.26-58h12.6m72.89-.05h12.6"/>
  <text class="cls-1" transform="translate(411.9 190.43) rotate(-90)"><tspan x="0" y="0">MemWrite</tspan></text>
  <text class="cls-1" transform="translate(53.81 14.38)"><tspan x="0" y="0">PCSrc</tspan></text>
  <polyline class="cls-9" points="477.2 198.93 477.2 103.97 460.17 104.1"/>
  <text class="cls-1" transform="translate(474.7 194.79) rotate(-90)"><tspan x="0" y="0">MemtoReg</tspan></text>
  <text class="cls-1" transform="translate(417.21 253.01)"><tspan x="0" y="0">MemRead</tspan></text>
  <line class="cls-14" x1="349.07" y1="195.96" x2="358.83" y2="195.96"/>
  <path class="cls-6" d="M360.07,195.42c-.87-.26-1.43-.5-2.12-.78v2.64c.25-.12,1.26-.52,2.12-.78,.93-.28,1.76-.47,2.31-.54-.54-.07-1.38-.26-2.31-.54"/>
  <polyline class="cls-14" points="302.73 163.42 346 163.42 346 105.96 249.79 105.96"/>
  <polygon class="cls-17" points="77.58 116.71 95.28 127.35 95.28 138.45 77.73 149.09 77.73 135.9 80.71 132.75 77.58 129.6 77.58 116.71"/>
  <text class="cls-5" transform="translate(83.3 135.12)"><tspan x="0" y="0">Add</tspan></text>
  <text class="cls-5" transform="translate(57.12 182.61)"><tspan x="0" y="0">Address</tspan></text>
  <text class="cls-2" transform="translate(69.29 202.85)"><tspan x="0" y="0">Instruction</tspan></text>
  <text class="cls-2" transform="translate(72.35 208.6)"><tspan x="0" y="0">memory</tspan></text>
  <path class="cls-17" d="M440.07,246.14h-51.94v-52.95h51.94v52.95Zm-332.44-15.47H55.69v-52.94h51.94v52.94Z"/>
  <text class="cls-5" transform="translate(390.53 207.8)"><tspan x="0" y="0">Address</tspan></text>
  <text class="cls-5" transform="translate(390.92 238.14)"><tspan x="0" y="0">Write</tspan></text>
  <text class="cls-5" transform="translate(390.92 243.89)"><tspan x="0" y="0">data</tspan></text>
  <text class="cls-5" transform="translate(426.94 204.2)"><tspan x="0" y="0">Read</tspan></text>
  <text class="cls-5" transform="translate(426.94 209.95)"><tspan x="0" y="0">data</tspan></text>
  <text class="cls-2" transform="translate(408.91 218.32)"><tspan x="0" y="0">Data</tspan></text>
  <text class="cls-2" transform="translate(404.78 224.07)"><tspan x="0" y="0">memory</tspan></text>
  <polygon class="cls-17" points="312.69 127.93 335.37 138.58 335.37 151.34 312.84 160.32 312.84 147.13 315 143.98 312.69 140.83 312.69 127.93"/>
  <text class="cls-2" transform="translate(315.34 145.76)"><tspan x="0" y="0">Add</tspan></text>
  <text class="cls-7" transform="translate(325.94 145.82)"><tspan x="0" y="0">Sum</tspan></text>
  <polygon class="cls-17" points="321.93 181.59 349.11 194.35 349.11 209.63 322.11 220.39 322.11 204.59 324.69 200.81 321.93 197.04 321.93 181.59"/>
  <text class="cls-2" transform="translate(325.44 202.44)"><tspan x="0" y="0">ALU</tspan></text>
  <text class="cls-7" transform="translate(336.2 205.38)"><tspan x="0" y="0">ALU</tspan></text>
  <text class="cls-7" transform="translate(336.2 209.12)"><tspan x="0" y="0">result</tspan></text>
  <g>
    <path class="cls-6" d="M336.2,195.52l1.1-2.86h.41l1.17,2.86h-.43l-.33-.87h-1.2l-.31,.87h-.4Zm.83-1.18h.97l-.3-.79c-.09-.24-.16-.44-.2-.59-.04,.18-.09,.37-.15,.55l-.31,.84Z"/>
    <path class="cls-6" d="M339.17,195.52v-2.86h.38v2.53h1.41v.34h-1.79Z"/>
    <path class="cls-6" d="M343.29,192.66h.38v1.65c0,.29-.03,.52-.1,.69s-.18,.31-.35,.41-.39,.16-.67,.16-.49-.05-.66-.14-.29-.23-.37-.4-.11-.41-.11-.72v-1.65h.38v1.65c0,.25,.02,.43,.07,.55s.13,.21,.24,.27,.25,.1,.41,.1c.28,0,.48-.06,.6-.19s.18-.37,.18-.73v-1.65Z"/>
    <path class="cls-6" d="M336.5,200.32v-2.86h1.07c.22,0,.39,.03,.53,.09s.24,.15,.31,.27,.11,.25,.11,.38c0,.12-.03,.24-.1,.35s-.17,.2-.3,.26c.17,.05,.31,.14,.4,.26s.14,.27,.14,.43c0,.13-.03,.26-.08,.37s-.13,.2-.21,.27-.19,.11-.31,.14-.28,.05-.46,.05h-1.09Zm.38-1.66h.62c.17,0,.29-.01,.36-.03,.1-.03,.17-.08,.22-.14s.07-.15,.07-.25-.02-.18-.07-.25-.11-.12-.2-.15-.23-.04-.44-.04h-.57v.87Zm0,1.32h.71c.12,0,.21,0,.26-.01,.09-.02,.16-.04,.22-.08s.11-.09,.14-.16,.06-.15,.06-.24c0-.11-.03-.2-.08-.28s-.13-.13-.23-.17-.24-.05-.42-.05h-.66v.98Z"/>
    <path class="cls-6" d="M339.13,200.32v-2.07h.32v.31c.08-.15,.16-.24,.22-.29s.14-.07,.23-.07c.12,0,.24,.04,.36,.11l-.12,.33c-.09-.05-.17-.08-.26-.08-.08,0-.15,.02-.21,.07s-.1,.11-.13,.19c-.04,.12-.06,.26-.06,.41v1.09h-.35Z"/>
    <path class="cls-6" d="M341.82,200.06c-.13,.11-.26,.19-.38,.23s-.25,.07-.39,.07c-.23,0-.4-.06-.53-.17s-.18-.25-.18-.43c0-.1,.02-.19,.07-.28s.11-.15,.18-.2,.16-.09,.25-.12c.07-.02,.17-.04,.31-.05,.28-.03,.49-.07,.63-.12,0-.05,0-.08,0-.09,0-.14-.03-.24-.1-.3-.09-.08-.22-.12-.4-.12-.17,0-.29,.03-.37,.09s-.14,.16-.17,.31l-.34-.05c.03-.15,.08-.27,.15-.36s.17-.16,.31-.21,.29-.07,.47-.07,.32,.02,.43,.06,.19,.09,.24,.16,.09,.14,.11,.24c.01,.06,.02,.17,.02,.32v.47c0,.33,0,.53,.02,.62s.04,.17,.09,.25h-.37c-.04-.07-.06-.16-.07-.26Zm-.03-.79c-.13,.05-.32,.1-.57,.13-.14,.02-.25,.04-.31,.07s-.11,.06-.14,.11-.05,.11-.05,.17c0,.09,.04,.17,.11,.23s.17,.09,.31,.09,.26-.03,.36-.09,.18-.14,.23-.24c.04-.08,.06-.2,.06-.35v-.13Z"/>
    <path class="cls-6" d="M342.7,200.32v-2.07h.32v.29c.15-.23,.37-.34,.66-.34,.12,0,.24,.02,.34,.07s.18,.1,.24,.18,.09,.16,.11,.26c.01,.06,.02,.18,.02,.34v1.28h-.35v-1.26c0-.14-.01-.25-.04-.32s-.08-.13-.15-.17-.15-.06-.25-.06c-.15,0-.28,.05-.39,.14s-.16,.28-.16,.54v1.13h-.35Z"/>
    <path class="cls-6" d="M346.27,199.56l.35,.04c-.04,.24-.13,.42-.29,.56s-.35,.2-.57,.2c-.28,0-.51-.09-.68-.28s-.26-.45-.26-.8c0-.22,.04-.42,.11-.59s.19-.29,.34-.38,.32-.13,.5-.13c.23,0,.41,.06,.55,.17s.24,.28,.28,.49l-.34,.05c-.03-.14-.09-.24-.17-.31s-.18-.11-.3-.11c-.18,0-.32,.06-.43,.19s-.17,.33-.17,.6,.05,.48,.16,.61,.25,.19,.42,.19c.14,0,.25-.04,.35-.13s.15-.21,.18-.39Z"/>
    <path class="cls-6" d="M346.92,200.32v-2.86h.35v1.03c.16-.19,.37-.29,.62-.29,.15,0,.29,.03,.4,.09s.19,.14,.24,.25,.07,.26,.07,.46v1.31h-.35v-1.31c0-.18-.04-.3-.11-.38s-.18-.12-.32-.12c-.1,0-.2,.03-.29,.08s-.16,.13-.2,.22-.06,.22-.06,.38v1.13h-.35Z"/>
  </g>
  <path class="cls-17" d="M460.19,306.91h-12.6V109.05h12.6v197.86Zm-210.42,0h-12.23V109.05h12.23v197.86Zm-117.28,0h-11.62V109.05h11.62v197.86ZM41.4,194.09h-10.38v-24.49h10.38v24.49Z"/>
  <polyline class="cls-10" points="482.69 216.35 485.77 216.35 485.77 338.93 157.78 338.93"/>
  <line class="cls-17" x1="440.07" y1="205.55" x2="444.81" y2="205.55"/>
  <path class="cls-20" d="M445.49,205.11c-.72-.22-1.19-.42-1.77-.65v2.2c.21-.1,1.05-.43,1.77-.65,.77-.23,1.47-.39,1.93-.45-.46-.06-1.15-.22-1.93-.45"/>
  <line class="cls-10" x1="107.59" y1="204.2" x2="116.73" y2="204.2"/>
  <path class="cls-20" d="M118.43,203.67c-.86-.26-1.43-.5-2.12-.78v2.64c.25-.12,1.26-.52,2.12-.78,.93-.28,1.77-.47,2.31-.54-.54-.07-1.38-.26-2.31-.54"/>
  <path class="cls-10" d="M349.07,205.48h9.96m101.16,99.42h16.55v28.59l-326.08-.86"/>
  <path class="cls-20" d="M359.88,204.94c-.87-.26-1.43-.5-2.12-.78v2.64c.25-.12,1.26-.52,2.12-.78,.92-.28,1.76-.47,2.31-.54-.55-.07-1.39-.26-2.31-.54"/>
  <line class="cls-10" x1="374.58" y1="206.11" x2="384.42" y2="206.11"/>
  <path class="cls-20" d="M385.65,205.57c-.87-.26-1.43-.5-2.12-.78v2.64c.25-.12,1.25-.52,2.12-.78,.93-.28,1.77-.47,2.31-.54-.54-.07-1.38-.26-2.31-.54"/>
  <line class="cls-10" x1="374.58" y1="239.73" x2="384.62" y2="239.73"/>
  <path class="cls-20" d="M385.86,239.19c-.87-.26-1.43-.5-2.12-.78v2.64c.25-.12,1.25-.52,2.12-.78,.92-.28,1.76-.47,2.31-.54-.55-.07-1.38-.26-2.31-.54"/>
  <polyline class="cls-10" points="398.55 255.26 378.6 255.26 378.6 206.11 378.64 132.15 416.31 132.15"/>
  <path class="cls-20" d="M444.72,262.73c-.87-.26-1.43-.5-2.12-.78v2.64c.25-.12,1.26-.52,2.12-.78,.92-.28,1.76-.47,2.31-.54-.54-.07-1.38-.26-2.31-.54"/>
  <line class="cls-10" x1="459.96" y1="206.11" x2="468.27" y2="206.11"/>
  <path class="cls-20" d="M469.5,205.57c-.87-.26-1.43-.5-2.12-.78v2.64c.25-.12,1.26-.52,2.12-.78,.92-.28,1.76-.47,2.31-.54-.54-.07-1.38-.26-2.31-.54"/>
  <polyline class="cls-10" points="460.19 263.27 463.49 263.27 463.49 224.79 468.27 224.79"/>
  <path class="cls-20" d="M469.5,224.25c-.87-.26-1.43-.5-2.12-.78v2.64c.25-.12,1.26-.52,2.12-.78,.92-.28,1.76-.47,2.31-.54-.54-.07-1.38-.26-2.31-.54"/>
  <text class="cls-2" transform="translate(32.89 183.31)"><tspan x="0" y="0">PC</tspan></text>
  <polyline class="cls-14" points="374.45 195.52 383.53 195.52 383.53 166.68 387.91 166.68"/>
  <line class="cls-10" x1="308.39" y1="218.35" x2="318.62" y2="218.35"/>
  <path class="cls-20" d="M319.59,217.82c-.87-.26-1.43-.5-2.12-.78v2.64c.25-.12,1.26-.52,2.12-.78,.93-.28,1.76-.47,2.31-.54-.54-.07-1.38-.26-2.31-.54"/>
  <line class="cls-10" x1="290.95" y1="153.46" x2="290.95" y2="257.58"/>
  <line class="cls-10" x1="279.61" y1="189.72" x2="294.84" y2="189.72"/>
  <line class="cls-10" x1="290.95" y1="208.39" x2="293.72" y2="208.39"/>
  <path class="cls-20" d="M295.34,207.86c-.86-.26-1.43-.5-2.12-.78v2.64c.25-.12,1.26-.52,2.12-.78,.93-.28,1.77-.47,2.31-.54-.54-.07-1.38-.26-2.31-.54"/>
  <line class="cls-10" x1="279.49" y1="227.42" x2="294.13" y2="227.42"/>
  <path class="cls-20" d="M295.37,226.88c-.86-.26-1.43-.5-2.12-.78v2.64c.25-.12,1.26-.52,2.12-.78,.93-.28,1.77-.47,2.31-.54-.54-.07-1.38-.26-2.31-.54"/>
  <polyline class="cls-10" points="253.87 217.73 253.87 249.99 351.08 249.99"/>
  <path class="cls-20" d="M360,239.4c-.86-.26-1.43-.5-2.12-.78v2.64c.25-.12,1.26-.52,2.12-.78,.93-.28,1.77-.47,2.31-.54-.54-.07-1.38-.26-2.31-.54"/>
  <line class="cls-10" x1="290.95" y1="153.81" x2="309.28" y2="153.81"/>
  <path class="cls-20" d="M310.52,153.27c-.86-.26-1.43-.5-2.12-.78v2.64c.25-.12,1.26-.52,2.12-.78,.93-.28,1.76-.47,2.31-.54-.54-.07-1.38-.26-2.31-.54"/>
  <line class="cls-10" x1="335.43" y1="144.88" x2="359.51" y2="144.88"/>
  <path class="cls-20" d="M359.98,144.35c-.87-.26-1.43-.5-2.12-.78v2.64c.25-.12,1.25-.52,2.12-.78,.92-.28,1.76-.47,2.31-.54-.54-.07-1.38-.26-2.31-.54"/>
  <line class="cls-10" x1="250.13" y1="133.47" x2="309.08" y2="133.47"/>
  <path class="cls-20" d="M310.31,132.93c-.87-.26-1.43-.5-2.12-.78v2.64c.25-.12,1.26-.52,2.12-.78,.93-.28,1.76-.47,2.31-.54-.55-.07-1.38-.26-2.31-.54"/>
  <line class="cls-10" x1="132.5" y1="133.05" x2="234.27" y2="133.05"/>
  <path class="cls-20" d="M234.84,132.46c-.96-.29-1.57-.55-2.34-.86v2.91c.28-.13,1.39-.57,2.34-.86,1.02-.31,1.95-.52,2.55-.6-.6-.07-1.53-.29-2.55-.6"/>
  <line class="cls-10" x1="65.81" y1="144.26" x2="74.11" y2="144.26"/>
  <path class="cls-20" d="M75.35,143.72c-.87-.26-1.43-.5-2.12-.78v2.64c.25-.12,1.25-.52,2.12-.78,.92-.28,1.76-.47,2.31-.54-.54-.07-1.38-.26-2.31-.54"/>
  <line class="cls-10" x1="41.32" y1="181.2" x2="52.11" y2="181.2"/>
  <path class="cls-20" d="M53.35,180.67c-.86-.26-1.43-.5-2.12-.78v2.64c.25-.12,1.26-.52,2.12-.78,.93-.28,1.77-.47,2.31-.54-.54-.07-1.38-.26-2.31-.54"/>
  <polyline class="cls-10" points="46.3 181.2 46.3 123.92 73.69 123.92"/>
  <path class="cls-20" d="M75.3,123.39c-.86-.26-1.43-.5-2.12-.78v2.64c.25-.12,1.26-.52,2.12-.78,.93-.28,1.77-.47,2.31-.54-.54-.07-1.38-.26-2.31-.54"/>
  <line class="cls-10" x1="24.16" y1="181.2" x2="27.62" y2="181.2"/>
  <path class="cls-20" d="M28.54,180.67c-.87-.26-1.43-.5-2.12-.78v2.64c.25-.12,1.26-.52,2.12-.78,.93-.28,1.77-.47,2.31-.54-.54-.07-1.38-.26-2.31-.54"/>
  <polyline class="cls-10" points="432.84 137.58 432.84 33.98 108.74 33.98 108.74 89.88 .33 89.88 .45 191.16 9.16 191.16"/>
  <path class="cls-20" d="M11.28,190.63c-.86-.26-1.43-.5-2.12-.78v2.64c.25-.12,1.26-.52,2.12-.78,.93-.28,1.77-.47,2.31-.54-.54-.07-1.38-.26-2.31-.54"/>
  <polyline class="cls-10" points="9.07 172.07 4.67 172.07 4.67 96.94 100.68 96.94 100.68 132.64"/>
  <path class="cls-20" d="M11.19,171.53c-.86-.26-1.43-.5-2.12-.78v2.64c.25-.12,1.26-.52,2.12-.78,.93-.28,1.77-.47,2.31-.54-.54-.07-1.38-.26-2.31-.54"/>
  <line class="cls-10" x1="417.21" y1="145.92" x2="374.58" y2="145.92"/>
  <text class="cls-5" transform="translate(60.03 145.92)"><tspan x="0" y="0">4</tspan></text>
  <text class="cls-5" transform="translate(443.78 84.56)"><tspan x="0" y="0">MEM/WB</tspan></text>
  <line class="cls-10" x1="250.13" y1="295.76" x2="359.46" y2="295.76"/>
  <path class="cls-20" d="M360.04,295.23c-.86-.26-1.43-.5-2.12-.78v2.64c.25-.12,1.26-.52,2.12-.78,.93-.28,1.76-.47,2.31-.54-.54-.07-1.38-.26-2.31-.54"/>
  <line class="cls-10" x1="374.46" y1="296.42" x2="444.64" y2="296.42"/>
  <path class="cls-20" d="M445.4,295.88c-.86-.26-1.43-.5-2.12-.78v2.64c.25-.12,1.26-.52,2.12-.78,.93-.28,1.76-.47,2.31-.54-.54-.07-1.38-.26-2.31-.54"/>
  <line class="cls-10" x1="249.51" y1="257.37" x2="290.95" y2="257.37"/>
  <polyline class="cls-14" points="249.95 99.48 351.08 99.48 351.08 182.61 337.1 182.61 337.12 186.84"/>
  <text class="cls-1" transform="translate(333.39 180.99)"><tspan x="0" y="0">ALUOp</tspan></text>
  <text class="cls-1" transform="translate(325.44 170.85)"><tspan x="0" y="0">ALUSrc</tspan></text>
  <text class="cls-1" transform="translate(192.51 172.17) rotate(-90)"><tspan x="0" y="0">RegWrite</tspan></text>
  <polyline class="cls-14" points="388.17 161.83 383.53 161.83 383.53 93.31 374.34 93.31"/>
  <text class="cls-3" transform="translate(390.92 163.42)"><tspan x="0" y="0">Branch</tspan></text>
  <rect class="cls-17" x="362.35" y="109.05" width="12.23" height="197.86"/>
  <path class="cls-9" d="M228.52,79.8c0,12.61-5.83,22.84-13.01,22.84s-13.01-10.23-13.01-22.84,5.83-22.84,13.01-22.84,13.01,10.22,13.01,22.84Z"/>
  <text class="cls-3" transform="translate(206.97 81.28)"><tspan x="0" y="0">Control</tspan></text>
  <line class="cls-10" x1="145.4" y1="78.5" x2="198.89" y2="78.5"/>
  <path class="cls-20" d="M200.12,77.96c-.87-.26-1.43-.5-2.12-.78v2.64c.25-.12,1.26-.52,2.12-.78,.93-.28,1.76-.47,2.31-.54-.54-.07-1.38-.26-2.31-.54"/>
  <line class="cls-14" x1="220.21" y1="58.48" x2="233.81" y2="58.48"/>
  <path class="cls-6" d="M235.04,57.94c-.86-.26-1.43-.5-2.12-.78v2.64c.25-.12,1.26-.52,2.12-.78,.93-.28,1.77-.47,2.31-.54-.54-.07-1.38-.26-2.31-.54"/>
  <line class="cls-14" x1="228.51" y1="79.28" x2="234.59" y2="79.28"/>
  <path class="cls-6" d="M235.2,78.75c-.86-.26-1.43-.5-2.12-.78v2.64c.25-.12,1.26-.52,2.12-.78,.93-.28,1.77-.47,2.31-.54-.54-.07-1.38-.26-2.31-.54"/>
  <line class="cls-14" x1="221.48" y1="100.09" x2="233.54" y2="100.09"/>
  <path class="cls-6" d="M235.08,99.55c-.86-.26-1.43-.5-2.12-.78v2.64c.25-.12,1.26-.52,2.12-.78,.92-.28,1.76-.47,2.31-.54-.55-.07-1.38-.26-2.31-.54"/>
  <polyline class="cls-14" points="249.92 79.71 355.66 79.71 355.66 93.33 359.6 93.33"/>
  <path class="cls-6" d="M359.81,92.8c-.86-.26-1.43-.5-2.12-.78v2.64c.25-.12,1.26-.52,2.12-.78,.93-.28,1.77-.47,2.31-.54-.54-.07-1.38-.26-2.31-.54"/>
  <polyline class="cls-14" points="249.82 58.69 354.88 58.69 354.88 69.2 358.85 69.2"/>
  <path class="cls-6" d="M359.77,68.67c-.86-.26-1.43-.5-2.12-.78v2.64c.25-.12,1.26-.52,2.12-.78,.93-.28,1.77-.47,2.31-.54-.54-.07-1.38-.26-2.31-.54"/>
  <polyline class="cls-14" points="374.72 78.1 426.07 78.1 426.07 96.19 444.64 96.19"/>
  <path class="cls-6" d="M445.72,95.65c-.68-.26-1.12-.5-1.67-.78v2.64c.2-.12,.99-.52,1.67-.78,.73-.28,1.39-.47,1.82-.54-.43-.07-1.09-.26-1.82-.54"/>
  <path class="cls-17" d="M482.44,223.27c0,3.46-2.35,6.26-5.25,6.26s-5.25-2.8-5.25-6.26v-15.98c0-3.46,2.35-6.26,5.25-6.26s5.25,2.8,5.25,6.26v15.98Z"/>
  <path class="cls-17" d="M24.09,189.19c0,3.46-2.35,6.26-5.25,6.26s-5.25-2.8-5.25-6.26v-15.98c0-3.46,2.35-6.26,5.25-6.26s5.25,2.8,5.25,6.26v15.98Z"/>
  <polygon class="cls-20" points="17.19 178.3 17.19 174.87 18.23 174.87 18.85 177.21 19.46 174.87 20.5 174.87 20.5 178.3 19.86 178.3 19.86 175.6 19.18 178.3 18.51 178.3 17.83 175.6 17.83 178.3 17.19 178.3"/>
  <path class="cls-20" d="M19.36,183.09v-.37c-.09,.13-.21,.24-.36,.31-.15,.08-.3,.11-.47,.11s-.32-.04-.45-.11c-.13-.07-.23-.17-.29-.31-.06-.13-.09-.31-.09-.55v-1.57h.66v1.14c0,.35,.01,.56,.04,.64,.02,.08,.07,.14,.13,.19,.06,.05,.15,.07,.24,.07,.11,0,.21-.03,.3-.09,.09-.06,.15-.14,.18-.23,.03-.09,.05-.31,.05-.67v-1.05h.66v2.48h-.61Z"/>
  <polygon class="cls-20" points="17.54 187.88 18.44 186.6 17.58 185.39 18.38 185.39 18.82 186.08 19.28 185.39 20.05 185.39 19.21 186.57 20.13 187.88 19.33 187.88 18.82 187.11 18.31 187.88 17.54 187.88"/>
  <g>
    <path class="cls-17" d="M308.18,225.72c0,3.45-2.35,6.26-5.25,6.26s-5.25-2.8-5.25-6.26v-15.98c0-3.46,2.35-6.26,5.25-6.26s5.25,2.8,5.25,6.26v15.98Z"/>
    <polygon class="cls-20" points="301.27 214.02 301.27 210.59 302.31 210.59 302.93 212.93 303.55 210.59 304.58 210.59 304.58 214.02 303.94 214.02 303.94 211.32 303.26 214.02 302.59 214.02 301.92 211.32 301.92 214.02 301.27 214.02"/>
    <path class="cls-20" d="M303.44,218.81v-.37c-.09,.13-.21,.24-.36,.31-.15,.08-.3,.11-.47,.11s-.32-.04-.45-.11c-.13-.07-.23-.18-.29-.31-.06-.13-.09-.32-.09-.55v-1.57h.66v1.14c0,.35,.01,.56,.04,.64,.02,.08,.07,.14,.13,.19,.06,.05,.15,.07,.24,.07,.11,0,.21-.03,.3-.09,.09-.06,.15-.14,.18-.23,.03-.09,.05-.31,.05-.67v-1.05h.66v2.48h-.61Z"/>
    <polygon class="cls-20" points="301.63 223.6 302.52 222.32 301.66 221.11 302.46 221.11 302.9 221.8 303.37 221.11 304.14 221.11 303.3 222.29 304.22 223.6 303.41 223.6 302.9 222.83 302.39 223.6 301.63 223.6"/>
  </g>
  <polygon class="cls-20" points="475.54 212.92 475.54 209.49 476.58 209.49 477.2 211.83 477.81 209.49 478.85 209.49 478.85 212.92 478.21 212.92 478.21 210.22 477.53 212.92 476.86 212.92 476.18 210.22 476.18 212.92 475.54 212.92"/>
  <path class="cls-20" d="M477.71,217.71v-.37c-.09,.13-.21,.24-.36,.31-.15,.08-.3,.11-.47,.11s-.32-.04-.45-.11c-.13-.07-.23-.18-.29-.31-.06-.13-.09-.32-.09-.55v-1.57h.66v1.14c0,.35,.01,.56,.04,.64,.02,.08,.07,.14,.13,.19,.06,.05,.15,.07,.24,.07,.11,0,.21-.03,.3-.09,.09-.06,.15-.14,.18-.23,.03-.09,.05-.31,.05-.67v-1.05h.66v2.48h-.61Z"/>
  <polygon class="cls-20" points="475.89 222.5 476.79 221.22 475.93 220.01 476.73 220.01 477.17 220.7 477.63 220.01 478.4 220.01 477.56 221.19 478.48 222.5 477.68 222.5 477.17 221.73 476.66 222.5 475.89 222.5"/>
  <path class="cls-20" d="M255.39,218.43c-.03,.84-.73,1.5-1.57,1.48-.84-.02-1.51-.73-1.48-1.57,.03-.84,.73-1.5,1.57-1.48,.84,.03,1.5,.73,1.48,1.57"/>
  <path class="cls-20" d="M380.16,206.22c-.03,.84-.73,1.51-1.57,1.48-.84-.03-1.5-.73-1.48-1.57,.03-.84,.73-1.5,1.57-1.48,.84,.03,1.51,.73,1.48,1.57"/>
  <path class="cls-20" d="M292.5,208.44c-.03,.84-.73,1.51-1.57,1.48-.84-.02-1.5-.73-1.48-1.57,.02-.84,.73-1.5,1.57-1.48,.84,.02,1.5,.73,1.48,1.57"/>
  <path class="cls-20" d="M47.72,181.2c0,.84-.68,1.53-1.53,1.53s-1.53-.68-1.53-1.53,.69-1.52,1.53-1.52,1.53,.68,1.53,1.52"/>
  <polyline class="cls-14" points="374.8 90.18 442.6 90.18 442.6 254.33 414.92 254.33 414.92 248.47"/>
  <rect class="cls-17" x="168.69" y="179.1" width="51.13" height="53.61"/>
  <text class="cls-5" transform="translate(170.18 184.42)"><tspan x="0" y="0">Read</tspan></text>
  <text class="cls-5" transform="translate(170.18 188.86)"><tspan x="0" y="0">register 1</tspan></text>
  <text class="cls-5" transform="translate(143.2 230.07) rotate(-90)"><tspan x="0" y="0">Instruction</tspan></text>
  <text class="cls-5" transform="translate(170.39 198.16)"><tspan x="0" y="0">Read</tspan></text>
  <text class="cls-5" transform="translate(170.39 202.59)"><tspan x="0" y="0">register 2</tspan></text>
  <text class="cls-5" transform="translate(170.59 211.89)"><tspan x="0" y="0">Write</tspan></text>
  <text class="cls-5" transform="translate(170.59 216.33)"><tspan x="0" y="0">register</tspan></text>
  <text class="cls-5" transform="translate(170.59 225.63)"><tspan x="0" y="0">Write</tspan></text>
  <text class="cls-5" transform="translate(170.59 230.07)"><tspan x="0" y="0">data</tspan></text>
  <text class="cls-5" transform="translate(159.94 255.1)"><tspan x="0" y="0">Instruction</tspan></text>
  <text class="cls-5" transform="translate(159.94 294.1)"><tspan x="0" y="0">rd, rs1, rs2</tspan></text>
  <text class="cls-1" transform="translate(159.94 271.31)"><tspan x="0" y="0">funct3, inst30</tspan></text>
  <text class="cls-5" transform="translate(205.28 187.82)"><tspan x="0" y="0">Read</tspan></text>
  <text class="cls-5" transform="translate(205.28 192.26)"><tspan x="0" y="0">data 1</tspan></text>
  <text class="cls-5" transform="translate(204.66 217.45)"><tspan x="0" y="0">Read</tspan></text>
  <text class="cls-5" transform="translate(204.66 221.89)"><tspan x="0" y="0">data 2</tspan></text>
  <text class="cls-2" transform="translate(183.46 207.44)"><tspan x="0" y="0">Registers</tspan></text>
  <path class="cls-17" d="M219.29,256.44c0,8.6-4.44,15.58-9.91,15.58s-9.91-6.97-9.91-15.58,4.44-15.57,9.91-15.57,9.91,6.97,9.91,15.57Z"/>
  <text class="cls-2" transform="translate(204.46 255.26)"><tspan x="0" y="0">Imm</tspan></text>
  <text class="cls-2" transform="translate(204.72 261)"><tspan x="0" y="0">Gen</tspan></text>
  <polyline class="cls-10" points="158.04 339.27 158.04 224.84 164.85 224.84"/>
  <path class="cls-20" d="M166.09,224.31c-.86-.26-1.43-.5-2.12-.78v2.64c.25-.12,1.25-.52,2.12-.78,.92-.28,1.76-.47,2.31-.54-.54-.07-1.38-.26-2.31-.54"/>
  <polyline class="cls-10" points="197.31 257.21 145.2 257.21 145.2 182.36 165.74 182.36"/>
  <path class="cls-20" d="M197.16,256.65c-1.08-.27-1.79-.52-2.66-.81v2.74c.31-.12,1.58-.54,2.66-.81,1.16-.29,2.22-.49,2.9-.56-.68-.07-1.74-.27-2.9-.56"/>
  <path class="cls-20" d="M166.4,181.82c-1.09-.26-1.79-.5-2.66-.78v2.63c.31-.12,1.58-.52,2.66-.78,1.16-.28,2.22-.47,2.9-.54-.68-.07-1.74-.26-2.9-.54"/>
  <polyline class="cls-10" points="150.66 332.64 150.66 215.84 165.63 215.84"/>
  <path class="cls-20" d="M166.43,215.32c-.86-.25-1.43-.49-2.12-.76v2.57c.25-.11,1.26-.51,2.12-.76,.92-.27,1.76-.46,2.31-.53-.54-.07-1.38-.25-2.31-.53"/>
  <line class="cls-10" x1="219.95" y1="188.75" x2="233.43" y2="188.75"/>
  <path class="cls-20" d="M236.59,188.75c-.54-.07-1.38-.26-2.3-.54-.86-.26-1.42-.5-2.12-.78v2.63c.25-.12,1.25-.52,2.12-.78,.92-.28,1.76-.47,2.3-.54"/>
  <line class="cls-10" x1="219.74" y1="218.32" x2="233.23" y2="218.32"/>
  <path class="cls-20" d="M236.65,218.32c-.54-.07-1.38-.26-2.31-.54-.86-.26-1.43-.5-2.12-.78v2.64c.25-.12,1.25-.52,2.12-.78,.92-.28,1.76-.47,2.31-.54"/>
  <polyline class="cls-10" points="145.2 251.39 145.2 295.79 234.97 295.79"/>
  <path class="cls-20" d="M236.57,295.8c-.62-.07-1.57-.26-2.61-.54-.98-.26-1.62-.5-2.4-.78v2.64c.28-.12,1.42-.52,2.4-.78,1.05-.28,2-.47,2.61-.54"/>
  <path class="cls-6" d="M236.57,273.59c-.62-.07-1.57-.26-2.61-.54-.98-.26-1.62-.5-2.4-.78v2.63c.28-.12,1.42-.52,2.4-.78,1.05-.28,2-.47,2.61-.54"/>
  <line class="cls-10" x1="219.29" y1="257.23" x2="233.55" y2="257.23"/>
  <path class="cls-20" d="M234.28,256.7c-.86-.26-1.42-.5-2.12-.78v2.64c.25-.12,1.25-.52,2.12-.78,.92-.28,1.76-.47,2.3-.54-.54-.07-1.38-.26-2.3-.54"/>
  <path class="cls-17" d="M189.43,254.83l2.1,4.6m33.56-5l2.1,4.6"/>
  <line class="cls-10" x1="132.57" y1="205.47" x2="145.2" y2="205.47"/>
  <path class="cls-20" d="M146.72,205.52c0,.84-.68,1.52-1.53,1.52s-1.52-.68-1.52-1.52,.68-1.52,1.52-1.52,1.53,.68,1.53,1.52"/>
  <path class="cls-20" d="M146.72,257.12c0,.84-.68,1.52-1.53,1.52s-1.52-.68-1.52-1.52,.68-1.52,1.52-1.52,1.53,.68,1.53,1.52"/>
  <path class="cls-20" d="M146.82,196.58c0,.84-.68,1.52-1.53,1.52s-1.52-.68-1.52-1.52,.68-1.52,1.52-1.52,1.53,.68,1.53,1.52"/>
  <path class="cls-20" d="M146.82,182.61c0,.84-.68,1.52-1.53,1.52s-1.52-.68-1.52-1.52,.68-1.52,1.52-1.52,1.53,.68,1.53,1.52"/>
  <line class="cls-10" x1="145.2" y1="182.92" x2="145.2" y2="78.5"/>
  <polyline class="cls-14" points="249.78 273.68 337.71 273.68 337.71 216.35"/>
  <path class="cls-20" d="M119.1,132.06c-.78-.24-1.29-.45-1.91-.7v2.38c.22-.11,1.13-.47,1.91-.7,.84-.25,1.59-.42,2.08-.49-.49-.06-1.25-.23-2.08-.49"/>
  <line class="cls-18" x1="111.34" y1="132.55" x2="118.29" y2="132.55"/>
  <path class="cls-20" d="M44.67,159.53c0,.84,.68,1.52,1.52,1.52s1.52-.68,1.52-1.52-.68-1.52-1.52-1.52-1.52,.68-1.52,1.52"/>
  <path class="cls-10" d="M100.88,133.05h-5.6m16.39,26.48v-26.95m-66.03,26.95H111.67"/>
  <path class="cls-20" d="M165.79,196.04c-1.09-.26-1.79-.5-2.67-.78v2.64c.31-.12,1.58-.52,2.67-.78,1.16-.28,2.22-.47,2.9-.54-.68-.07-1.74-.26-2.9-.54"/>
  <line class="cls-10" x1="145.16" y1="196.57" x2="166.81" y2="196.57"/>
  <g>
    <path class="cls-17" d="M308.14,193.09c0,3.45-2.35,6.26-5.25,6.26s-5.25-2.8-5.25-6.26v-15.98c0-3.46,2.35-6.26,5.25-6.26s5.25,2.8,5.25,6.26v15.98Z"/>
    <polygon class="cls-20" points="301.24 181.39 301.24 177.96 302.28 177.96 302.9 180.3 303.51 177.96 304.55 177.96 304.55 181.39 303.91 181.39 303.91 178.69 303.23 181.39 302.56 181.39 301.88 178.69 301.88 181.39 301.24 181.39"/>
    <path class="cls-20" d="M303.41,186.18v-.37c-.09,.13-.21,.24-.36,.31-.15,.08-.3,.11-.47,.11s-.32-.04-.45-.11c-.13-.07-.23-.18-.29-.31-.06-.13-.09-.32-.09-.55v-1.57h.66v1.14c0,.35,.01,.56,.04,.64,.02,.08,.07,.14,.13,.19,.06,.05,.15,.07,.24,.07,.11,0,.21-.03,.3-.09,.09-.06,.15-.14,.18-.23,.03-.09,.05-.31,.05-.67v-1.05h.66v2.48h-.61Z"/>
    <polygon class="cls-20" points="301.59 190.96 302.49 189.68 301.63 188.48 302.43 188.48 302.87 189.16 303.33 188.48 304.1 188.48 303.26 189.66 304.18 190.96 303.38 190.96 302.87 190.19 302.36 190.96 301.59 190.96"/>
  </g>
  <polyline class="cls-10" points="285.1 133.8 285.1 182.61 295.46 182.61"/>
  <path class="cls-20" d="M286.62,133.52c-.03,.84-.73,1.5-1.57,1.48-.84-.02-1.51-.73-1.48-1.57,.03-.84,.73-1.5,1.57-1.48,.84,.03,1.5,.73,1.48,1.57"/>
  <path class="cls-20" d="M295.37,182.07c-.87-.26-1.43-.5-2.12-.78v2.64c.25-.12,1.26-.52,2.12-.78,.93-.28,1.76-.47,2.31-.54-.54-.07-1.38-.26-2.31-.54"/>
  <polyline class="cls-14" points="346 163.42 346 173.24 312.69 173.27 312.69 200.36 302.93 200.32 302.93 203.48"/>
  <line class="cls-14" x1="302.73" y1="163.18" x2="302.73" y2="169.74"/>
  <text class="cls-1" transform="translate(318.62 161.87)"><tspan x="0" y="0">ALUInputPC</tspan></text>
  <line class="cls-14" x1="144.28" y1="273.57" x2="231.55" y2="273.57"/>
  <path class="cls-20" d="M146.72,273.68c0,.84-.68,1.52-1.53,1.52s-1.52-.68-1.52-1.52,.68-1.52,1.52-1.52,1.53,.68,1.53,1.52"/>
  <polyline class="cls-11" points="4.67 172.17 4.67 284.8 120.74 284.8"/>
  <line class="cls-11" x1="132.57" y1="284.8" x2="232.16" y2="284.8"/>
  <line class="cls-11" x1="249.72" y1="284.8" x2="361.01" y2="284.8"/>
  <path class="cls-20" d="M360.04,284.26c-.86-.26-1.43-.5-2.12-.78v2.64c.25-.12,1.26-.52,2.12-.78,.93-.28,1.76-.47,2.31-.54-.54-.07-1.38-.26-2.31-.54"/>
  <path class="cls-20" d="M118.43,284.26c-.86-.26-1.43-.5-2.12-.78v2.64c.25-.12,1.26-.52,2.12-.78,.93-.28,1.76-.47,2.31-.54-.54-.07-1.38-.26-2.31-.54"/>
  <path class="cls-20" d="M233.95,284.26c-1.02-.26-1.68-.5-2.49-.78v2.64c.29-.12,1.48-.52,2.49-.78,1.09-.28,2.07-.47,2.71-.54-.64-.07-1.63-.26-2.71-.54"/>
  <path class="cls-20" d="M6.2,172.07c0,.84-.68,1.52-1.53,1.52s-1.52-.68-1.52-1.52,.68-1.52,1.52-1.52,1.53,.68,1.53,1.52"/>
  <text class="cls-5" transform="translate(52.11 282.19)"><tspan x="0" y="0">PC+4</tspan></text>
  <text class="cls-5" transform="translate(251.21 131.6)"><tspan x="0" y="0">PC</tspan></text>
  <g>
    <path class="cls-17" d="M410.33,271.06c0,2.95-2.35,5.76-5.25,5.76s-5.25-2.8-5.25-6.26v-15.98c0-3.46,2.35-6.26,5.25-6.26s5.25,2.8,5.25,6.76v15.98Z"/>
    <polygon class="cls-20" points="403.43 258.85 403.43 255.43 404.46 255.43 405.08 257.77 405.7 255.43 406.74 255.43 406.74 258.85 406.09 258.85 406.09 256.16 405.41 258.85 404.75 258.85 404.07 256.16 404.07 258.85 403.43 258.85"/>
    <path class="cls-20" d="M405.6,263.64v-.37c-.09,.13-.21,.24-.36,.31-.15,.08-.3,.11-.47,.11s-.32-.04-.45-.11c-.13-.07-.23-.18-.29-.31-.06-.13-.09-.32-.09-.55v-1.57h.66v1.14c0,.35,.01,.56,.04,.64,.02,.08,.07,.14,.13,.19,.06,.05,.15,.07,.24,.07,.11,0,.21-.03,.3-.09,.09-.06,.15-.14,.18-.23,.03-.09,.05-.31,.05-.67v-1.05h.66v2.48h-.61Z"/>
    <polygon class="cls-20" points="403.78 268.43 404.67 267.15 403.81 265.95 404.62 265.95 405.06 266.63 405.52 265.95 406.29 265.95 405.45 267.12 406.37 268.43 405.56 268.43 405.06 267.66 404.55 268.43 403.78 268.43"/>
  </g>
  <polyline class="cls-11" points="374.46 284.8 390.52 284.8 390.52 269.5 399.83 269.5"/>
  <path class="cls-20" d="M397.73,254.72c-.87-.26-1.43-.5-2.12-.78v2.64c.25-.12,1.26-.52,2.12-.78,.92-.28,1.76-.47,2.31-.54-.54-.07-1.38-.26-2.31-.54"/>
  <path class="cls-20" d="M397.38,268.96c-.87-.26-1.43-.5-2.12-.78v2.64c.25-.12,1.26-.52,2.12-.78,.92-.28,1.76-.47,2.31-.54-.54-.07-1.38-.26-2.31-.54"/>
  <line class="cls-11" x1="410.33" y1="263.27" x2="444.64" y2="263.27"/>
  <polyline class="cls-14" points="442.6 254.33 442.6 280.88 405.08 280.88 405.08 276.81"/>
  <text class="cls-1" transform="translate(413.07 278.91)"><tspan x="0" y="0">BranchJalx</tspan></text>
  <g>
    <path class="cls-17" d="M428.58,146.07c0,2.95-2.35,5.76-5.25,5.76s-5.25-2.8-5.25-6.26v-15.98c0-3.46,2.35-6.26,5.25-6.26s5.25,2.8,5.25,6.76v15.98Z"/>
    <polygon class="cls-20" points="421.68 133.87 421.68 130.44 422.71 130.44 423.34 132.78 423.95 130.44 424.99 130.44 424.99 133.87 424.35 133.87 424.35 131.17 423.67 133.87 423 133.87 422.32 131.17 422.32 133.87 421.68 133.87"/>
    <path class="cls-20" d="M423.85,138.66v-.37c-.09,.13-.21,.24-.36,.31-.15,.08-.3,.11-.47,.11s-.32-.04-.45-.11c-.13-.07-.23-.18-.29-.31-.06-.13-.09-.32-.09-.55v-1.57h.66v1.14c0,.35,.01,.56,.04,.64,.02,.08,.07,.14,.13,.19,.06,.05,.15,.07,.24,.07,.11,0,.21-.03,.3-.09,.09-.06,.15-.14,.18-.23,.03-.09,.05-.31,.05-.67v-1.05h.66v2.48h-.61Z"/>
    <polygon class="cls-20" points="422.03 143.44 422.93 142.16 422.07 140.96 422.87 140.96 423.31 141.64 423.77 140.96 424.54 140.96 423.7 142.14 424.62 143.44 423.81 143.44 423.31 142.67 422.8 143.44 422.03 143.44"/>
  </g>
  <path class="cls-20" d="M416.22,145.38c-.87-.26-1.43-.5-2.12-.78v2.64c.25-.12,1.25-.52,2.12-.78,.92-.28,1.76-.47,2.31-.54-.54-.07-1.38-.26-2.31-.54"/>
  <path class="cls-20" d="M416.22,131.61c-.87-.26-1.43-.5-2.12-.78v2.64c.25-.12,1.25-.52,2.12-.78,.92-.28,1.76-.47,2.31-.54-.54-.07-1.38-.26-2.31-.54"/>
  <line class="cls-15" x1="428.58" y1="137.58" x2="433.14" y2="137.58"/>
  <polyline class="cls-14" points="374.58 98.25 423.33 98.25 423.33 123.33"/>
  <text class="cls-1" transform="translate(421.68 120.79) rotate(-90)"><tspan x="0" y="0">ALU2PC</tspan></text>
  <text class="cls-5" transform="translate(52.11 87.88)"><tspan x="0" y="0">PCTarget</tspan></text>
  <ellipse class="cls-9" cx="399.24" cy="161.83" rx="9.46" ry="14.44"/>
  <polyline class="cls-14" points="386.89 98.25 386.89 155.13 390.77 155.13"/>
  <path class="cls-6" d="M388.41,98.21c-.03,.84-.73,1.51-1.57,1.48-.84-.03-1.5-.73-1.48-1.57,.03-.84,.73-1.5,1.57-1.48,.84,.03,1.51,.73,1.48,1.57"/>
  <text class="cls-1" transform="translate(382.28 129.53) rotate(-90)"><tspan x="0" y="0">branchctrl</tspan></text>
  <g>
    <path class="cls-17" d="M279.31,196.76c0,4.36-2.36,7.89-5.26,7.89s-5.25-3.53-5.25-7.89v-20.15c0-4.36,2.35-7.89,5.25-7.89s5.26,3.53,5.26,7.89v20.15Z"/>
    <polygon class="cls-20" points="272.02 182 272.02 177.68 273.33 177.68 274.11 180.63 274.89 177.68 276.2 177.68 276.2 182 275.39 182 275.39 178.6 274.53 182 273.69 182 272.83 178.6 272.83 182 272.02 182"/>
    <path class="cls-20" d="M274.76,188.04v-.47c-.11,.17-.26,.3-.45,.39-.18,.1-.38,.14-.59,.14s-.4-.05-.57-.14c-.17-.09-.29-.22-.36-.39-.07-.17-.11-.4-.11-.69v-1.98h.83v1.44c0,.44,.01,.71,.05,.81,.03,.1,.08,.18,.17,.24,.08,.06,.18,.09,.31,.09,.14,0,.27-.04,.38-.12,.11-.08,.19-.17,.23-.29,.04-.11,.06-.4,.06-.84v-1.32h.83v3.13h-.77Z"/>
    <polygon class="cls-20" points="272.47 194.08 273.6 192.46 272.51 190.95 273.52 190.95 274.08 191.81 274.66 190.95 275.63 190.95 274.57 192.43 275.73 194.08 274.72 194.08 274.08 193.11 273.44 194.08 272.47 194.08"/>
  </g>
  <path class="cls-20" d="M295.34,189.09c-.87-.26-1.43-.5-2.12-.78v2.64c.25-.12,1.26-.52,2.12-.78,.93-.28,1.76-.47,2.31-.54-.54-.07-1.38-.26-2.31-.54"/>
  <g>
    <path class="cls-17" d="M279.31,238.81c0,4.36-2.36,7.89-5.26,7.89s-5.25-3.53-5.25-7.89v-20.15c0-4.36,2.35-7.89,5.25-7.89s5.26,3.53,5.26,7.89v20.15Z"/>
    <polygon class="cls-20" points="272.02 224.06 272.02 219.74 273.33 219.74 274.11 222.69 274.89 219.74 276.2 219.74 276.2 224.06 275.39 224.06 275.39 220.66 274.53 224.06 273.69 224.06 272.83 220.66 272.83 224.06 272.02 224.06"/>
    <path class="cls-20" d="M274.76,230.1v-.47c-.11,.17-.26,.3-.45,.39-.18,.1-.38,.14-.59,.14s-.4-.05-.57-.14c-.17-.09-.29-.22-.36-.39-.07-.17-.11-.4-.11-.69v-1.98h.83v1.44c0,.44,.01,.71,.05,.81,.03,.1,.08,.18,.17,.24,.08,.06,.18,.09,.31,.09,.14,0,.27-.04,.38-.12,.11-.08,.19-.17,.23-.29,.04-.11,.06-.4,.06-.84v-1.32h.83v3.13h-.77Z"/>
    <polygon class="cls-20" points="272.47 236.13 273.6 234.52 272.51 233 273.52 233 274.08 233.87 274.66 233 275.63 233 274.57 234.49 275.73 236.13 274.72 236.13 274.08 235.17 273.44 236.13 272.47 236.13"/>
  </g>
  <line class="cls-13" x1="249.78" y1="218.38" x2="253.7" y2="218.38"/>
  <line class="cls-10" x1="253.87" y1="218.32" x2="267.09" y2="218.32"/>
  <path class="cls-20" d="M266.99,217.78c-.86-.26-1.43-.5-2.12-.78v2.64c.25-.12,1.26-.52,2.12-.78,.93-.28,1.77-.47,2.31-.54-.54-.07-1.38-.26-2.31-.54"/>
  <polyline class="cls-13" points="350.84 250.33 350.84 239.94 358.84 239.94"/>
  <polyline class="cls-13" points="249.95 188.86 253.87 188.86 253.87 176.08 266.31 176.08"/>
  <path class="cls-20" d="M266.96,175.54c-.86-.26-1.43-.5-2.12-.78v2.64c.25-.12,1.26-.52,2.12-.78,.93-.28,1.77-.47,2.31-.54-.54-.07-1.38-.26-2.31-.54"/>
  <path class="cls-20" d="M266.99,188.41c-.86-.26-1.43-.5-2.12-.78v2.64c.25-.12,1.26-.52,2.12-.78,.93-.28,1.77-.47,2.31-.54-.54-.07-1.38-.26-2.31-.54"/>
  <path class="cls-20" d="M428.84,263.31c-.03,.84-.73,1.51-1.57,1.48-.84-.03-1.5-.73-1.48-1.57,.03-.84,.73-1.5,1.57-1.48,.84,.03,1.51,.73,1.48,1.57"/>
  <line class="cls-13" x1="258.13" y1="229.39" x2="267.09" y2="229.39"/>
  <path class="cls-20" d="M259.65,229.44c-.03,.84-.73,1.5-1.57,1.48-.84-.02-1.51-.73-1.48-1.57,.03-.84,.73-1.5,1.57-1.48,.84,.03,1.5,.73,1.48,1.57"/>
  <path class="cls-20" d="M266.96,228.85c-.86-.26-1.43-.5-2.12-.78v2.64c.25-.12,1.26-.52,2.12-.78,.93-.28,1.77-.47,2.31-.54-.54-.07-1.38-.26-2.31-.54"/>
  <polyline class="cls-13" points="262.61 338.93 262.61 196.58 266.89 196.58"/>
  <path class="cls-20" d="M264.13,338.98c-.03,.84-.73,1.5-1.57,1.48-.84-.02-1.51-.73-1.48-1.57,.03-.84,.73-1.5,1.57-1.48,.84,.03,1.5,.73,1.48,1.57"/>
  <path class="cls-20" d="M266.96,196.04c-.86-.26-1.43-.5-2.12-.78v2.64c.25-.12,1.26-.52,2.12-.78,.93-.28,1.77-.47,2.31-.54-.54-.07-1.38-.26-2.31-.54"/>
  <path class="cls-20" d="M264.13,239.24c-.03,.84-.73,1.5-1.57,1.48-.84-.02-1.51-.73-1.48-1.57,.03-.84,.73-1.5,1.57-1.48,.84,.03,1.5,.73,1.48,1.57"/>
  <line class="cls-13" x1="262.61" y1="239.19" x2="266.42" y2="239.19"/>
  <path class="cls-20" d="M266.99,238.65c-.86-.26-1.43-.5-2.12-.78v2.64c.25-.12,1.26-.52,2.12-.78,.93-.28,1.77-.47,2.31-.54-.54-.07-1.38-.26-2.31-.54"/>
  <text class="cls-5" transform="translate(462.33 302.4)"><tspan x="0" y="0">rd_wb</tspan></text>
  <g>
    <rect class="cls-16" x="288.97" y="301.67" width="43.29" height="20.17" rx="10.09" ry="10.09"/>
    <text class="cls-19" transform="translate(297.45 313.18)"><tspan x="0" y="0">Forwarding</tspan></text>
  </g>
  <polyline class="cls-10" points="268.8 295.76 268.8 311.75 286.67 311.75"/>
  <path class="cls-20" d="M270.33,295.81c-.03,.84-.73,1.5-1.57,1.48-.84-.02-1.51-.73-1.48-1.57,.03-.84,.73-1.5,1.57-1.48,.84,.03,1.5,.73,1.48,1.57"/>
  <text class="cls-5" transform="translate(269.72 310.28)"><tspan x="0" y="0">rs1, rs2</tspan></text>
  <polyline class="cls-13" points="377.78 296.42 377.78 309.6 334.67 309.6"/>
  <path class="cls-20" d="M379.31,296.47c-.03,.84-.73,1.5-1.57,1.48-.84-.02-1.51-.73-1.48-1.57,.03-.84,.73-1.5,1.57-1.48,.84,.03,1.5,.73,1.48,1.57"/>
  <text class="cls-5" transform="translate(338.83 307.67)"><tspan x="0" y="0">rd_mem</tspan></text>
  <polyline class="cls-14" points="442.6 280.88 442.6 313.18 335.06 313.18"/>
  <text class="cls-1" transform="translate(388.17 311.75)"><tspan x="0" y="0">RegWrite_mem</tspan></text>
  <polyline class="cls-12" points="460.19 101.67 490.38 101.67 490.38 317.14 333.78 317.14"/>
  <text class="cls-1" transform="translate(446.17 315.03)"><tspan x="0" y="0">RegWrite_wb</tspan></text>
  <polyline class="cls-10" points="276.76 332.95 276.76 316.04 287.27 316.04"/>
  <path class="cls-20" d="M278.28,333.08c-.03,.84-.73,1.5-1.57,1.48-.84-.02-1.51-.73-1.48-1.57,.03-.84,.73-1.5,1.57-1.48,.84,.03,1.5,.73,1.48,1.57"/>
  <polyline class="cls-8" points="274.06 249.26 274.06 270.16 299.74 270.16 299.74 301.67"/>
  <text class="cls-4" transform="translate(276.76 268.43)"><tspan x="0" y="0">ForwardB</tspan></text>
  <polyline class="cls-8" points="274.06 206.03 274.06 208.93 285.95 208.93 285.95 244.03 320.67 244.03 320.67 301.67"/>
  <text class="cls-4" transform="translate(295.43 242.46)"><tspan x="0" y="0">ForwardA</tspan></text>
  <g>
    <rect class="cls-16" x="129.33" y="45.32" width="43.29" height="20.17" rx="10.09" ry="10.09"/>
    <text class="cls-19" transform="translate(142.64 54.24)"><tspan x="0" y="0">Hazard</tspan><tspan x="-3.05" y="6">Detection</tspan></text>
  </g>
  <line class="cls-10" x1="145.2" y1="78.5" x2="145.2" y2="67.71"/>
  <path class="cls-20" d="M144.66,67.8c-.26,.87-.5,1.43-.78,2.12h2.64c-.12-.25-.52-1.26-.78-2.12-.28-.93-.47-1.76-.54-2.31-.07,.54-.26,1.38-.54,2.31"/>
  <path class="cls-20" d="M146.72,78.5c0,.84-.68,1.52-1.53,1.52s-1.52-.68-1.52-1.52,.68-1.52,1.52-1.52,1.53,.68,1.53,1.52"/>
  <polyline class="cls-16" points="172.24 52.68 215.5 52.68 215.5 56.96"/>
  <polyline class="cls-9" points="257.67 80.02 257.67 30.16 159 30.16 159 42.8"/>
  <text class="cls-1" transform="translate(193.52 28.24)"><tspan x="0" y="0">MemRead_ex</tspan></text>
  <path class="cls-6" d="M159.54,43.01c.26-.86,.5-1.43,.78-2.12h-2.64c.12,.25,.52,1.26,.78,2.12,.28,.93,.47,1.77,.54,2.31,.07-.54,.26-1.38,.54-2.31"/>
  <polyline class="cls-10" points="253.87 295.8 253.87 321.84 137.7 321.84 137.7 67.71"/>
  <path class="cls-20" d="M255.2,295.91c-.03,.84-.73,1.5-1.57,1.48-.84-.02-1.51-.73-1.48-1.57,.03-.84,.73-1.5,1.57-1.48,.84,.03,1.5,.73,1.48,1.57"/>
  <text class="cls-5" transform="translate(239.81 319.19)"><tspan x="0" y="0">rd_ex</tspan></text>
  <path class="cls-20" d="M137.16,67.37c-.26,.87-.5,1.43-.78,2.12h2.64c-.12-.25-.52-1.26-.78-2.12-.28-.93-.47-1.76-.54-2.31-.07,.54-.26,1.38-.54,2.31"/>
  <path class="cls-20" d="M286.8,311.22c-.86-.26-1.43-.5-2.12-.78v2.64c.25-.12,1.26-.52,2.12-.78,.93-.28,1.76-.47,2.31-.54-.54-.07-1.38-.26-2.31-.54"/>
  <path class="cls-20" d="M287.79,315.5c-.86-.26-1.43-.5-2.12-.78v2.64c.25-.12,1.26-.52,2.12-.78,.93-.28,1.76-.47,2.31-.54-.54-.07-1.38-.26-2.31-.54"/>
  <path class="cls-20" d="M334.09,310.14c.86,.26,1.43,.5,2.12,.78v-2.64c-.25,.12-1.26,.52-2.12,.78-.93,.28-1.76,.47-2.31,.54,.54,.07,1.38,.26,2.31,.54"/>
  <path class="cls-6" d="M334.32,313.72c.86,.26,1.43,.5,2.12,.78v-2.64c-.25,.12-1.26,.52-2.12,.78-.93,.28-1.76,.47-2.31,.54,.54,.07,1.38,.26,2.31,.54"/>
  <path class="cls-6" d="M332.83,317.68c.86,.26,1.43,.5,2.12,.78v-2.64c-.25,.12-1.26,.52-2.12,.78-.93,.28-1.76,.47-2.31,.54,.54,.07,1.38,.26,2.31,.54"/>
  <polyline class="cls-16" points="130.06 51.65 36.22 51.65 36.22 166.96"/>
  <polyline class="cls-16" points="130.06 59.18 126.69 59.18 126.69 106.33"/>
  <path class="cls-21" d="M36.76,167.49c.26-.87,.5-1.43,.78-2.12h-2.64c.12,.25,.52,1.25,.78,2.12,.28,.92,.47,1.76,.54,2.31,.07-.54,.26-1.38,.54-2.31"/>
  <path class="cls-21" d="M127.23,106.99c.26-.87,.5-1.43,.78-2.12h-2.64c.12,.25,.52,1.25,.78,2.12,.28,.92,.47,1.76,.54,2.31,.07-.54,.26-1.38,.54-2.31"/>
  <text class="cls-5" transform="translate(121.5 105.84)"><tspan x="0" y="0">IF/ID</tspan></text>
  <text class="cls-4" transform="translate(34.24 142.49) rotate(-90)"><tspan x="0" y="0">PCWrite</tspan></text>
  <text class="cls-4" transform="translate(125.37 90.68) rotate(-90)"><tspan x="0" y="0">IF/IDWrite</tspan></text>
  <text class="cls-4" transform="translate(179.79 51.22)"><tspan x="0" y="0">ClearControl</tspan></text>
  <polyline class="cls-8" points="408.47 165.92 436.67 165.92 436.67 6.67 114.82 6.67 114.82 120.79 118.8 120.79"/>
  <path class="cls-21" d="M119.19,120.25c-.87-.26-1.43-.5-2.12-.78v2.64c.25-.12,1.25-.52,2.12-.78,.92-.28,1.76-.47,2.31-.54-.54-.07-1.38-.26-2.31-.54"/>
  <line class="cls-8" x1="243.66" y1="6.67" x2="243.66" y2="46.72"/>
  <line class="cls-8" x1="368.47" y1="6.67" x2="368.47" y2="64.97"/>
  <path class="cls-21" d="M244.2,46.94c.26-.87,.5-1.43,.78-2.12h-2.64c.12,.25,.52,1.25,.78,2.12,.28,.92,.47,1.76,.54,2.31,.07-.54,.26-1.38,.54-2.31"/>
  <text class="cls-5" transform="translate(237.41 46.21)"><tspan x="0" y="0">ID/EX</tspan></text>
  <path class="cls-21" d="M369.01,65.58c.26-.87,.5-1.43,.78-2.12h-2.64c.12,.25,.52,1.25,.78,2.12,.28,.92,.47,1.76,.54,2.31,.07-.54,.26-1.38,.54-2.31"/>
  <text class="cls-5" transform="translate(359.02 64.37)"><tspan x="0" y="0">EX/MEM</tspan></text>
  <path class="cls-21" d="M369.99,6.72c-.03,.84-.73,1.5-1.57,1.48-.84-.02-1.51-.73-1.48-1.57,.03-.84,.73-1.5,1.57-1.48,.84,.03,1.5,.73,1.48,1.57"/>
  <path class="cls-21" d="M245.19,6.72c-.03,.84-.73,1.5-1.57,1.48-.84-.02-1.51-.73-1.48-1.57,.03-.84,.73-1.5,1.57-1.48,.84,.03,1.5,.73,1.48,1.57"/>
  <text class="cls-4" transform="translate(170.49 4.11)"><tspan x="0" y="0">Flush</tspan></text>
  <path class="cls-21" d="M216.04,55.73c.26-.87,.5-1.43,.78-2.12h-2.64c.12,.25,.52,1.25,.78,2.12,.28,.92,.47,1.76,.54,2.31,.07-.54,.26-1.38,.54-2.31"/>
  <path class="cls-6" d="M337.17,215.91c-.26,.87-.5,1.43-.78,2.12h2.64c-.12-.25-.52-1.26-.78-2.12-.28-.93-.47-1.76-.54-2.31-.07,.54-.26,1.38-.54,2.31"/>
  <path class="cls-6" d="M303.47,202.59c.26-.54,.5-.89,.78-1.32h-2.64c.12,.15,.52,.78,.78,1.32,.28,.58,.47,1.1,.54,1.44,.07-.34,.26-.86,.54-1.44"/>
  <path class="cls-6" d="M337.64,186.75c.26-.87,.5-1.43,.78-2.12h-2.64c.12,.25,.52,1.26,.78,2.12,.28,.93,.47,1.76,.54,2.31,.07-.54,.26-1.38,.54-2.31"/>
  <path class="cls-6" d="M303.27,169.21c.26-.87,.5-1.43,.78-2.12h-2.64c.12,.25,.52,1.26,.78,2.12,.28,.93,.47,1.76,.54,2.31,.07-.54,.26-1.38,.54-2.31"/>
  <path class="cls-6" d="M194.98,176.83c.26-.87,.5-1.43,.78-2.12h-2.64c.12,.25,.52,1.26,.78,2.12,.28,.93,.47,1.76,.54,2.31,.07-.54,.26-1.38,.54-2.31"/>
  <path class="cls-6" d="M404.54,278.08c-.26,.72-.5,1.19-.78,1.77h2.64c-.12-.21-.52-1.05-.78-1.77-.28-.77-.47-1.47-.54-1.92-.07,.45-.26,1.15-.54,1.92"/>
  <path class="cls-6" d="M414.86,190.75c.26-.87,.5-1.43,.78-2.12h-2.64c.12,.25,.52,1.26,.78,2.12,.28,.93,.47,1.76,.54,2.31,.07-.54,.26-1.38,.54-2.31"/>
  <path class="cls-6" d="M477.74,199.11c.26-.87,.5-1.43,.78-2.12h-2.64c.12,.25,.52,1.26,.78,2.12,.28,.93,.47,1.76,.54,2.31,.07-.54,.26-1.38,.54-2.31"/>
  <path class="cls-6" d="M389.73,154.59c-.58-.26-.95-.5-1.42-.78v2.64c.17-.12,.84-.52,1.42-.78,.62-.28,1.18-.47,1.54-.54-.36-.07-.92-.26-1.54-.54"/>
  <path class="cls-6" d="M388.09,161.29c-.73-.26-1.21-.5-1.79-.78v2.64c.21-.12,1.06-.52,1.79-.78,.78-.28,1.49-.47,1.95-.54-.46-.07-1.17-.26-1.95-.54"/>
  <path class="cls-6" d="M388.41,166.14c-.87-.26-1.43-.5-2.12-.78v2.64c.25-.12,1.26-.52,2.12-.78,.93-.28,1.76-.47,2.31-.54-.54-.07-1.38-.26-2.31-.54"/>
  <path class="cls-6" d="M19.38,164.65c.26-.87,.5-1.43,.78-2.12h-2.64c.12,.25,.52,1.25,.78,2.12,.28,.92,.47,1.76,.54,2.31,.07-.54,.26-1.38,.54-2.31"/>
  <path class="cls-21" d="M273.52,248.79c-.26,.87-.5,1.43-.78,2.12h2.64c-.12-.25-.52-1.26-.78-2.12-.28-.93-.47-1.76-.54-2.31-.07,.54-.26,1.38-.54,2.31"/>
  <path class="cls-21" d="M273.52,205.81c-.26,.73-.5,1.2-.78,1.78h2.64c-.12-.21-.52-1.05-.78-1.78-.28-.78-.47-1.48-.54-1.93-.07,.46-.26,1.16-.54,1.93"/>
  <path class="cls-6" d="M414.37,248.06c-.26,.87-.5,1.43-.78,2.12h2.64c-.12-.25-.52-1.26-.78-2.12-.28-.93-.47-1.76-.54-2.31-.07,.54-.26,1.38-.54,2.31"/>
  <text class="cls-5" transform="translate(296.41 151.99)"><tspan x="0" y="0">Imm</tspan></text>
  <path class="cls-6" d="M259.2,79.76c-.03,.84-.73,1.51-1.57,1.48-.84-.03-1.5-.73-1.48-1.57,.03-.84,.73-1.5,1.57-1.48,.84,.03,1.51,.73,1.48,1.57"/>
</svg>